<svg id="レイヤー_1" data-name="レイヤー 1" xmlns="http://www.w3.org/2000/svg" viewBox="0 0 351.42 511.96"><path d="M187.67,0l13.24,2q62,9.09,104.44,55.31c29.73,32.45,44.42,71,46,114.72.76,21.14-4.42,41.34-11.66,61-17.41,47.24-41.26,91.3-67.2,134.24q-43.55,72-93.1,140.12c-1,1.43-2.18,2.8-3.64,4.65-1.42-1.73-2.5-2.91-3.44-4.21C127.15,445.22,84.6,381,48.27,312.84c-17-31.93-32.6-64.44-42.65-99.4-8.93-31.07-6.69-61.69,3-92C20.69,83.89,43.25,53.84,75.56,31.33A168.84,168.84,0,0,1,150,2c4.59-.63,9.16-1.33,13.74-2Zm-12,419.39a31.88,31.88,0,0,0,2.38-2.92c23.75-38.55,48.15-76.72,71-115.79a519.27,519.27,0,0,0,42.33-90.36c9.39-26.77,9.09-53-1.59-79-19.07-46.4-54.15-73.43-103.66-77.62-50.82-4.31-90.68,17.16-116.72,61.47C52.74,143.5,47.35,174.27,59,205.93a650.17,650.17,0,0,0,27.68,65.21c25,50.33,54.78,97.91,86.15,144.5C173.59,416.83,174.53,417.92,175.66,419.39Z"/><path d="M175.89,118.63a57.29,57.29,0,1,1-57.53,57.26A57.21,57.21,0,0,1,175.89,118.63Z"/></svg>