<svg id="レイヤー_1" data-name="レイヤー 1" xmlns="http://www.w3.org/2000/svg" viewBox="0 0 512 402.18"><path d="M0,341.06V61c2.5-7.33,4.05-15.2,7.66-22C21.61,12.81,44,0,73.56,0H438.43c2.17,0,4.34-.06,6.5.11,21.74,1.72,39.51,10.82,52.9,28.25C505.3,38.1,509.44,49.21,512,61V340a7.65,7.65,0,0,0-.72,1.84c-4,32.27-34,60.35-71.33,60.28-122.66-.23-245.31,0-368-.13-27.13,0-48.26-11.78-62.12-35C5.17,359.15,3.2,349.74,0,341.06ZM467.9,50.48a17.09,17.09,0,0,0-1.35-2.3,27.42,27.42,0,0,0-2.46-2.48c-7.56-6.94-16.53-9-26.66-9q-181.46.24-362.9.11a66.75,66.75,0,0,0-8,.24c-9.38,1.1-16.8,5.56-22.78,13.48.89.63,1.47,1,2,1.42L235.62,217.49c13.33,11.62,27.51,11.58,40.89-.07Q348.69,154.57,420.8,91.64C436.47,78,452.12,64.26,467.9,50.48ZM54.56,360.85c6.31,4.4,12.93,4.45,19.56,4.45H437.93a37.34,37.34,0,0,0,7.47-.27c4-.79,7.8-2.08,11.69-3.16.19-.62.37-1.24.56-1.86a24.7,24.7,0,0,1-3.34-2.11Q424.15,331.67,394,305.36q-40.11-35-80.18-70c-2.59-2.27-4.35-2.8-7-.11a122.92,122.92,0,0,1-11.32,9.82c-20.19,15.81-42.4,19-65.54,8.18-8.83-4.11-16.36-11.24-24.06-17.51-3.26-2.65-5-2.81-8.23,0Q131,294.19,64,352.4C60.94,355.09,57.91,357.85,54.56,360.85Zm420.46-29V88.73L335.59,210.33Zm-438.15,0L176.41,210.28,36.87,88.61Z"/></svg>