<svg id="レイヤー_1" data-name="レイヤー 1" xmlns="http://www.w3.org/2000/svg" viewBox="0 0 512 512"><path d="M0,277V235a25.2,25.2,0,0,0,.83-3.35C6.29,178.85,25.51,131.79,60,91.25,100,44.1,150.43,14.7,211.5,3.93,220,2.44,228.5,1.3,237,0h38c4.23.64,8.45,1.36,12.7,1.92q98.83,12.92,163.73,88.57a245.45,245.45,0,0,1,54.25,108.22c2.79,12.61,4.25,25.52,6.32,38.29v38c-.36,2.77-.74,5.54-1.08,8.32-8.08,66.8-37,122.68-87.95,166.82-34.05,29.5-73.23,48.66-117.55,57-10.09,1.9-20.28,3.24-30.42,4.84H237c-4.24-.64-8.46-1.39-12.71-1.91-47.38-5.85-89.9-23.5-127.19-53.24-47.94-38.24-78.69-87.4-91.65-147.44C3.14,298.71,1.79,287.81,0,277Zm471.77-20.92c0-118.75-96.81-215.8-215.57-216-118.49-.23-215.57,96.7-216,215.62C39.85,374.37,137.28,472,256.05,472S471.73,374.8,471.77,256.08Z"/><path d="M326.18,372.59c-11.26-.51-24.67-4.23-37.53-10-51.81-23.23-91.45-60.18-121.19-108.14-10.07-16.24-18.22-33.37-22.05-52.21a87,87,0,0,1-1.47-18.87,26.26,26.26,0,0,1,7.65-18.48c6.58-6.63,13-13.37,19.68-19.93,6.85-6.76,14.73-6.92,21.64-.12q17.28,17,34.1,34.49c5.19,5.36,5.07,12.94-.06,18.4-4.57,4.85-9.37,9.48-14,14.24-6.78,6.9-7.58,13.35-1.79,20.92a390.41,390.41,0,0,0,73.12,72.79c6.92,5.31,12.86,4.64,19.19-1.49,4.55-4.4,8.92-9,13.47-13.4,6.9-6.69,14.88-7,21.7-.25,11.52,11.33,22.85,22.87,34.09,34.49,5.31,5.48,5.13,13.25-.23,18.78-6.74,6.94-13.65,13.7-20.49,20.53C345.64,370.67,337.67,372.49,326.18,372.59Z"/></svg>