<svg xmlns="http://www.w3.org/2000/svg" width="305.68mm" height="305.68mm" viewBox="0 0 866.49 866.49"><defs><style>.a{fill:#231815;}</style></defs><path class="a" d="M727.59,115.65a6.91,6.91,0,0,0-2.28-2.12A431.58,431.58,0,0,0,433.25,0C275,0,136.39,85.26,60.76,212.22a6.86,6.86,0,0,0-1.37,2.33A430.57,430.57,0,0,0,0,433.25C0,672.14,194.36,866.49,433.25,866.49S866.49,672.14,866.49,433.25C866.49,307.9,813,194.83,727.59,115.65Zm-564.15-3.48,55.68,127.16L147.81,396.54l-74.32-179A422.92,422.92,0,0,1,163.44,112.17ZM716.1,742.9H569.43a6.83,6.83,0,1,0,0,13.65h131a418.78,418.78,0,0,1-528,5.17H296.38a6.83,6.83,0,0,0,6.29-9.49L200.24,510.59H429V754.88a6.83,6.83,0,0,0,13.65,0V503.75a6.82,6.82,0,0,0-6.83-6.82l-.17,0H189.93a6.81,6.81,0,0,0-6.28,9.48L286.08,748.07H156.18c-87.33-77-142.53-189.55-142.53-314.82A417,417,0,0,1,64.91,232.43l76.32,183.85a6.81,6.81,0,0,0,6.19,4.21h.11a6.82,6.82,0,0,0,6.21-4l72.74-160.35,64.9,148.21a6.83,6.83,0,0,0,12.46.09L433.89,118.28,581,394.79H410.33a6.82,6.82,0,1,0,0,13.64h182a6.82,6.82,0,0,0,6-10L439.43,99.64A6.66,6.66,0,0,0,433.19,96a6.83,6.83,0,0,0-6,4L297.74,384.86,234.06,239.43l60.67-133.77A6.82,6.82,0,1,0,282.3,100L226.7,222.62,174.41,103.21a418.85,418.85,0,0,1,540.67,19.43V373.45L574.15,99.72A6.82,6.82,0,0,0,562,106L715.83,404.73a6.82,6.82,0,0,0,12.89-3.12v-266C805.33,211.68,852.85,317,852.85,433.25,852.85,555.74,800.08,666.12,716.1,742.9Z"/><path class="a" d="M721.9,619.92H571.56a6.82,6.82,0,1,0,0,13.64H721.9a6.82,6.82,0,1,0,0-13.64Z"/><path class="a" d="M721.9,496.93H571.56a6.82,6.82,0,1,0,0,13.64H721.9a6.82,6.82,0,1,0,0-13.64Z"/></svg>